# AST/ASF file generated using VICON BodyLanguage
# -----------------------------------------------
:version 1.10
:name VICON
:units
  mass 1.0
  length 0.45
  angle deg
:documentation
   .ast/.asf automatically generated from VICON data using
   VICON BodyBuilder and BodyLanguage model FoxedUp or BRILLIANT.MOD
:root
   order TX TY TZ RX RY RZ
   axis XYZ
   position 0 0 0  
   orientation 0 0 0 
:bonedata
  begin
     id 1 
     name lhipjoint
     direction 0.716248 -0.617586 0.324924 
     length 2.63557 
     axis 0 0 0  XYZ
  end
  begin
     id 2 
     name lfemur
     direction 0.34202 -0.939693 0  
     length 7.01235  
     axis 0 0 20  XYZ
    dof rx ry rz
    limits (-160.0 20.0)
           (-70.0 70.0)
           (-60.0 70.0)
  end
  begin
     id 3 
     name ltibia
     direction 0.34202 -0.939693 0   
     length 8.14348   
     axis 0 0 20   XYZ
    dof rx
    limits (-10.0 170.0)
  end
  begin
     id 4 
     name lfoot
     direction 0.0982064 -0.26982 0.95789   
     length 1.99077   
     axis -90 7.62852e-016 20   XYZ
    dof rx rz
    limits (-45.0 90.0)
           (-70.0 20.0)
  end
  begin
     id 5 
     name ltoes
     direction 1.53511e-011 -4.21891e-011 1   
     length 0.99735   
     axis -90 7.62852e-016 20   XYZ
    dof rx
    limits (-90.0 20.0)
  end
  begin
     id 6 
     name rhipjoint
     direction -0.687828 -0.642391 0.337975   
     length 2.5338  
     axis 0 0 0  XYZ 
  end
  begin
     id 7 
     name rfemur
     direction -0.34202 -0.939693 0   
     length 6.90199   
     axis 0 0 -20   XYZ
    dof rx ry rz
    limits (-160.0 20.0)
           (-70.0 70.0)
           (-70.0 60.0)
  end
  begin
     id 8 
     name rtibia
     direction -0.34202 -0.939693 0   
     length 8.07725   
     axis 0 0 -20   XYZ
    dof rx
    limits (-10.0 170.0)
 end
 begin
     id 9 
     name rfoot
     direction -0.0912384 -0.250675 0.963762   
     length 2.11621  
     axis -90 -7.62852e-016 -20   XYZ
    dof rx rz
    limits (-45.0 90.0)
           (-20.0 70.0)
  end
  begin
     id 10 
     name rtoes
     direction -1.5359e-011 -4.21894e-011 1   
     length 1.06031   
     axis -90 -7.62852e-016 -20   XYZ
    dof rx
    limits (-90.0 20.0)
  end
  begin
     id 11 
     name lowerback
     direction -0.0403572 0.987953 -0.149396   
     length 2.05637   
     axis 0 0 0   XYZ
    dof rx ry rz
    limits (-20.0 45.0)
           (-30.0 30.0)
           (-30.0 30.0)
  end
  begin
     id 12 
     name upperback
     direction -0.00512151 0.997598 0.0690792   
     length 2.01086   
     axis 0 0 0   XYZ
    dof rx ry rz
    limits (-20.0 45.0)
           (-30.0 30.0)
           (-30.0 30.0)
  end
  begin
     id 13 
     name thorax
     direction 0.0136133 0.989392 0.14463   
     length 2.09035   
     axis 0 0 0   XYZ
    dof rx ry rz
    limits (-20.0 45.0)
           (-30.0 30.0)
           (-30.0 30.0)
  end
  begin
     id 14 
     name lowerneck
     direction 0.0250714 0.992811 0.11704   
     length 1.70806   
     axis 0 0 0   XYZ
    dof rx ry rz
    limits (-20.0 45.0)
           (-30.0 30.0)
           (-30.0 30.0)
  end
  begin
     id 15 
     name upperneck
     direction -0.0519205 0.998394 -0.0226787   
     length 1.6689   
     axis 0 0 0   XYZ
    dof rx ry rz
    limits (-20.0 45.0)
           (-30.0 30.0)
           (-30.0 30.0)
  end
  begin
     id 16
     name head
     direction -0.0201693 0.999547 -0.0223192  
     length 1.83412  
     axis 0 0 0   XYZ
    dof rx ry rz
    limits (-20.0 45.0)
           (-30.0 30.0)
           (-30.0 30.0)
  end
  begin
     id 17 
     name lclavicle
     direction 0.89585 0.444077 -0.0157448  
     length 3.39587  
     axis 0 0 0   XYZ
    dof ry rz
    limits (-20.0 10.0)
           (0.0 20.0)
  end
  begin
     id 18 
     name lhumerus
     direction 1 -4.48956e-011 1.99132e-028   
     length 5.79199   
     axis 180 -30 -90   XYZ
    dof rx ry rz
    limits (-60.0 90.0)
           (-90.0 90.0)
           (-90.0 90.0)
  end
  begin
     id 19
     name lradius
     direction 1 -4.48974e-011 8.72912e-028   
     length 3.49908   
     axis 180 -30 -90   XYZ
    dof rx
    limits (-10.0 170.0)
  end
  begin
     id 20
     name lwrist
     direction 1 -4.48994e-011 4.76442e-027   
     length 1.74954   
     axis -3.27502e-015 90 90   XYZ
    dof ry
    limits (-180.0 0.0)
 end
  begin
     id 21 
     name lhand
     direction 1 -4.48945e-011 9.531e-027   
     length 0.593861   
     axis -6.08098e-015 90 90   XYZ
    dof rx rz
    limits (-90.0 90.0)
           (-45.0 45.0)
  end
  begin
     id 22 
     name lfingers
     direction 1 -4.48945e-011 1.9062e-026   
     length 0.478786   
     axis -1.21619e-014 90 90   XYZ
    dof rx
    limits (0.0 90.0)
  end
  begin
     id 23
     name lthumb
     direction 0.707107 -6.34904e-011 0.707107   
     length 0.687444   
     axis -90 45 -9.86923e-015   XYZ
    dof rx rz
    limits (-45.0 45.0)
           (-45.0 45.0)
  end
  begin
     id 24 
     name rclavicle
     direction -0.940466 0.338394 0.0318182   
     length 3.51226  
     axis 0 0 0   XYZ 
    dof ry rz
    limits (-10.0 20.0)
           (-20.0 0.0)
  end
  begin
     id 25 
     name rhumerus
     direction -1 -4.48976e-011 2.0905e-027  
     length 5.73799   
     axis 180 30 90   XYZ
    dof rx ry rz
    limits (-90.0 60.0)
           (-90.0 90.0)
           (-90.0 90.0)
  end
  begin
     id 26 
     name rradius
     direction -1 -4.48968e-011 -9.39692e-029   
     length 3.57916   
     axis 180 30 90   XYZ
    dof rx
    limits (-10.0 170.0)
  end
  begin
     id 27 
     name rwrist
     direction -1 -4.48959e-011 4.7652e-027   
     length 1.78958   
     axis -3.27502e-015 -90 -90   XYZ
    dof ry
    limits (-180.0 0.0)
  end
  begin
     id 28
     name rhand
     direction -1 -4.49042e-011 9.5267e-027   
     length 0.615577   
     axis -6.08098e-015 -90 -90   XYZ
    dof rx rz
    limits (-90.0 90.0)
           (-45.0 45.0)
  end
  begin
     id 29
     name rfingers
     direction -1 -4.48935e-011 1.90629e-026   
     length 0.496294   
     axis -1.21619e-014 -90 -90   XYZ
    dof rx
    limits (0.0 90.0)
  end
  begin
     id 30
     name rthumb
     direction -0.707107 -6.34977e-011 0.707107   
     length 0.712582   
     axis -90 -45 9.86923e-015   XYZ
    dof rx rz
    limits (-45.0 45.0)
           (-45.0 45.0)
  end
:hierarchy
  begin
    root lhipjoint rhipjoint lowerback
    lhipjoint lfemur
    lfemur ltibia
    ltibia lfoot
    lfoot ltoes
    rhipjoint rfemur
    rfemur rtibia
    rtibia rfoot
    rfoot rtoes
    lowerback upperback
    upperback thorax
    thorax lowerneck lclavicle rclavicle
    lowerneck upperneck
    upperneck head
    lclavicle lhumerus
    lhumerus lradius
    lradius lwrist
    lwrist lhand lthumb
    lhand lfingers
    rclavicle rhumerus
    rhumerus rradius
    rradius rwrist
    rwrist rhand rthumb
    rhand rfingers
  end

#!OML:ASF H:\Terrain\Patient Classification 1\PaulMetrics\March17Take5\PaulMetrics.ASF
:FULLY-SPECIFIED
:DEGREES
1036
root -9.75499 16.8313 -19.241 -174.306 190.069 178.318
lowerback 3.20218 1.52453 -2.77982
upperback -2.8496 1.87892 -0.184344
thorax -4.82682 1.02386 1.22747
lowerneck -0.526029 10.6504 10.1068
upperneck 6.52089 15.1307 -14.4976
head 3.91234 7.35911 -5.29777
rclavicle 8.33653e-015 -2.50469e-014
rhumerus -47.8007 13.0407 -86.1198
rradius 41.7391
rwrist -8.31861
rhand -18.2295 -31.4441
rfingers 7.12502
rthumb 8.04882 -61.2709
lclavicle 8.33653e-015 -2.50469e-014
lhumerus -46.6994 -12.5131 83.2118
lradius 37.69
lwrist 17.6597
lhand -8.17354 -20.337
lfingers 7.12502
lthumb 17.7419 8.87364
rfemur -19.2412 2.28608 25.0869
rtibia 31.6037
rfoot -18.2923 -8.49111
rtoes 3.53648
lfemur -28.6558 -3.43144 -20.7433
ltibia 66.509
lfoot -9.60285 -0.789306
ltoes -10.0121
1037
root -9.80703 16.8304 -19.1252 -174.079 189.85 177.87
lowerback 3.11416 1.69878 -2.50208
upperback -2.94645 2.13223 -0.0961292
thorax -4.88129 1.14331 1.14477
lowerneck -0.472457 10.5099 10.2354
upperneck 6.48229 14.9434 -14.5775
head 3.88388 7.27155 -5.36201
rclavicle 2.49847e-014 1.31198e-014
rhumerus -47.8941 13.1422 -86.0368
rradius 42.415
rwrist -8.85796
rhand -18.2594 -31.6989
rfingers 7.12502
rthumb 8.02001 -61.5267
lclavicle 2.49847e-014 1.31198e-014
lhumerus -47.0304 -12.7471 83.1952
lradius 37.6451
lwrist 17.7332
lhand -8.17591 -19.2551
lfingers 7.12502
lthumb 17.7396 9.9557
rfemur -18.7826 2.64019 25.7221
rtibia 31.3322
rfoot -18.6841 -9.12284
rtoes 2.292
lfemur -29.9251 -3.07966 -20.3075
ltibia 66.0589
lfoot -10.1964 -0.300827
ltoes -9.70285
1038
root -9.85375 16.8312 -19.0087 -174.077 189.472 177.545
lowerback 3.09669 1.77801 -2.22207
upperback -2.86916 2.2563 -0.0578311
thorax -4.78535 1.19461 1.02065
lowerneck -0.439333 10.4321 10.382
upperneck 6.33712 14.8377 -14.7691
head 3.84748 7.22295 -5.45631
rclavicle -2.6339e-015 7.15625e-015
rhumerus -47.6483 13.1443 -85.8838
rradius 42.9242
rwrist -9.07643
rhand -18.1306 -31.932
rfingers 7.12502
rthumb 8.14427 -61.755
lclavicle -2.6339e-015 7.15625e-015
lhumerus -47.0901 -12.7163 82.9973
lradius 37.4716
lwrist 17.6539
lhand -8.72148 -18.8834
lfingers 7.12502
lthumb 17.2145 10.3741
rfemur -18.0432 2.72376 26.2356
rtibia 31.0026
rfoot -19.0578 -9.7705
rtoes 0.968487
lfemur -30.8935 -2.75369 -20.0582
ltibia 65.4706
lfoot -10.5471 0.191669
ltoes -9.15265
1039
root -9.89589 16.8303 -18.8928 -174.093 189.106 177.548
lowerback 3.20836 1.85376 -2.13415
upperback -2.92247 2.35384 -0.173211
thorax -4.89933 1.23897 0.840018
lowerneck -0.236467 10.378 10.3575
upperneck 6.15599 14.7421 -14.5967
head 3.73195 7.19339 -5.42327
rclavicle 1.35422e-015 -7.95139e-016
rhumerus -47.7656 12.9307 -85.7156
rradius 43.6086
rwrist -8.68217
rhand -17.6451 -32.1977
rfingers 7.12502
rthumb 8.61285 -62.002
lclavicle 1.35422e-015 -7.95139e-016
lhumerus -47.3206 -12.7425 82.7674
lradius 37.3131
lwrist 17.6248
lhand -8.31614 -18.6224
lfingers 7.12502
lthumb 17.6046 10.6006
rfemur -17.3338 2.77818 26.3603
rtibia 30.6884
rfoot -19.5221 -10.2405
rtoes 1.08805
lfemur -31.7794 -2.53462 -20.201
ltibia 64.6846
lfoot -11.0841 0.583295
ltoes -8.18913
1040
root -9.93577 16.8305 -18.7703 -173.982 188.849 177.477
lowerback 3.20036 1.86765 -2.06521
upperback -3.00563 2.37527 -0.179144
thorax -4.97911 1.24826 0.792163
lowerneck -0.0535097 10.4417 10.2171
upperneck 5.91619 14.8037 -14.4393
head 3.6154 7.2382 -5.36386
rclavicle -2.17421e-015 1.15295e-014
rhumerus -47.8565 13.1037 -85.6206
rradius 44.1987
rwrist -8.5259
rhand -17.5822 -32.0983
rfingers 7.12502
rthumb 8.67354 -61.9001
lclavicle -2.17421e-015 1.15295e-014
lhumerus -47.64 -12.4113 82.5476
lradius 37.2559
lwrist 17.8386
lhand -8.62475 -18.1592
lfingers 7.12502
lthumb 17.3076 11.0902
rfemur -16.7854 2.9221 26.5427
rtibia 30.4618
rfoot -19.9377 -10.5947
rtoes 0.937155
lfemur -32.6901 -2.37714 -20.2334
ltibia 63.6966
lfoot -11.7125 0.701275
ltoes -6.282
1041
root -9.97402 16.8199 -18.6473 -173.906 188.719 177.251
lowerback 3.12853 1.89903 -1.9548
upperback -2.95495 2.42995 -0.0804836
thorax -4.88638 1.27261 0.831913
lowerneck -0.0352661 10.5374 10.1183
upperneck 5.68921 14.9162 -14.4874
head 3.55575 7.2965 -5.3593
rclavicle 2.05369e-014 -1.11319e-014
rhumerus -47.6962 13.4957 -85.5178
rradius 44.7522
rwrist -8.78297
rhand -17.7794 -32.0282
rfingers 7.12502
rthumb 8.48327 -61.8378
lclavicle 2.05369e-014 -1.11319e-014
lhumerus -47.7494 -11.8803 82.3074
lradius 37.1578
lwrist 18.3144
lhand -9.99908 -18.1872
lfingers 7.12502
lthumb 15.9845 11.1733
rfemur -16.203 2.98969 26.9022
rtibia 30.25
rfoot -20.3146 -10.7895
rtoes 0.789682
lfemur -33.3747 -2.3819 -19.9819
ltibia 62.5833
lfoot -12.5117 0.243591
ltoes 0.889572
1042
root -10.0124 16.8004 -18.5308 -173.946 188.578 177.18
lowerback 3.22239 2.04162 -1.89879
upperback -2.90189 2.61871 -0.156234
thorax -4.88407 1.36245 0.705731
lowerneck -0.116184 10.5209 10.15
upperneck 5.4922 14.8695 -14.5363
head 3.51118 7.2744 -5.38164
rclavicle 1.11816e-016 -1.31198e-014
rhumerus -47.6826 13.5798 -85.4243
rradius 45.4779
rwrist -9.02535
rhand -17.8003 -31.7179
rfingers 7.12502
rthumb 8.46308 -61.5283
lclavicle 1.11816e-016 -1.31198e-014
lhumerus -47.7146 -11.9052 82.0364
lradius 36.9821
lwrist 18.6511
lhand -10.3396 -18.8059
lfingers 7.12502
lthumb 15.6566 10.5806
rfemur -15.5496 2.94249 27.1068
rtibia 30.0138
rfoot -20.5284 -10.8979
rtoes 1.24156
lfemur -33.9337 -2.27332 -19.9448
ltibia 61.3905
lfoot -13.3956 -0.173741
ltoes 6.31018
1043
root -10.0502 16.7981 -18.4105 -173.953 188.196 177.147
lowerback 3.35671 2.12265 -1.7401
upperback -2.92167 2.72636 -0.299613
thorax -4.96933 1.40798 0.455036
lowerneck -0.211277 10.4587 10.196
upperneck 5.23397 14.7502 -14.5597
head 3.44068 7.21815 -5.40497
rclavicle -7.90169e-015 -3.57812e-015
rhumerus -47.6326 13.4992 -85.4208
rradius 46.0005
rwrist -9.42609
rhand -17.9621 -31.4544
rfingers 7.12502
rthumb 8.30694 -61.271
lclavicle -7.90169e-015 -3.57812e-015
lhumerus -47.7505 -12.0476 81.7133
lradius 36.8902
lwrist 18.484
lhand -9.95554 -19.3757
lfingers 7.12502
lthumb 16.0265 9.9814
rfemur -14.858 2.67898 27.2906
rtibia 29.7003
rfoot -20.4348 -11.1553
rtoes -0.432441
lfemur -34.7444 -1.85252 -20.2356
ltibia 60.1287
lfoot -13.943 0.811707
ltoes -1.07275
1044
root -10.0859 16.8026 -18.2884 -173.848 187.655 177.128
lowerback 3.40724 2.05745 -1.6749
upperback -3.01786 2.64041 -0.31376
thorax -5.09282 1.36378 0.406417
lowerneck 0.0881872 10.4114 10.1388
upperneck 4.73822 14.6606 -14.667
head 3.23693 7.19493 -5.46354
rclavicle 1.92573e-014 -2.38542e-015
rhumerus -47.5624 13.7124 -85.3917
rradius 46.3442
rwrist -9.97469
rhand -18.2167 -31.5501
rfingers 7.12502
rthumb 8.06117 -61.3764
lclavicle 1.92573e-014 -2.38542e-015
lhumerus -48.1106 -11.7908 81.5225
lradius 36.9531
lwrist 18.3498
lhand -9.68456 -19.0796
lfingers 7.12502
lthumb 16.2874 10.2564
rfemur -14.2041 2.46321 27.473
rtibia 29.2318
rfoot -20.534 -11.6025
rtoes -1.75516
lfemur -35.6147 -1.93549 -20.3334
ltibia 58.738
lfoot -14.4691 1.15645
ltoes -1.31235
1045
root -10.1224 16.8051 -18.1696 -173.67 187.289 177.041
lowerback 3.36194 1.99543 -1.71303
upperback -3.05101 2.55973 -0.234317
thorax -5.10536 1.32707 0.517134
lowerneck 0.107785 10.4558 9.93037
upperneck 4.45148 14.6894 -14.6249
head 3.13411 7.21414 -5.42418
rclavicle 3.8676e-014 -1.78906e-014
rhumerus -47.444 14.2494 -85.3006
rradius 46.9203
rwrist -10.3752
rhand -18.3686 -31.8737
rfingers 7.12502
rthumb 7.91455 -61.7056
lclavicle 3.8676e-014 -1.78906e-014
lhumerus -48.3531 -11.4512 81.4341
lradius 36.8803
lwrist 18.61
lhand -9.86031 -18.8579
lfingers 7.12502
lthumb 16.1182 10.4918
rfemur -13.575 2.61094 27.7128
rtibia 28.5983
rfoot -21.1605 -12.0595
rtoes 0.675063
lfemur -36.3443 -2.12287 -20.1534
ltibia 57.2283
lfoot -15.1449 0.545093
ltoes 5.71974
1046
root -10.1595 16.815 -18.0473 -173.551 187.021 176.891
lowerback 3.34257 2.03413 -1.62964
upperback -3.07983 2.61661 -0.231828
thorax -5.12199 1.3526 0.468682
lowerneck -0.0373201 10.4855 9.84045
upperneck 4.42888 14.7035 -14.4246
head 3.13114 7.21826 -5.34116
rclavicle 1.41386e-014 1.59028e-015
rhumerus -47.452 14.4723 -85.2876
rradius 47.7897
rwrist -10.9332
rhand -18.6513 -32.6398
rfingers 7.12502
rthumb 7.64173 -62.4818
lclavicle 1.41386e-014 1.59028e-015
lhumerus -48.4179 -11.2765 81.2421
lradius 36.5642
lwrist 18.6105
lhand -10.279 -19.5548
lfingers 7.12502
lthumb 15.715 9.82708
rfemur -12.8051 2.79304 28.0001
rtibia 27.9048
rfoot -21.7961 -12.4346
rtoes 2.69172
lfemur -36.9297 -1.66291 -20.3063
ltibia 55.6186
lfoot -15.6596 1.37938
ltoes -0.035767
